# File created by Blade
# Date/Time:  Tue Sep 30 19:15:05 2014
# Frame Rate: 120.000 fps
#------------------------------------------------------
:FULLY-SPECIFIED
:DEGREES
1926
root -2.720895 33.652734 -4.503091 10.721085 -3.988420 -28.158993
Spine -10.896193 -8.044969 29.213617
Head 2.627791 -27.645029 8.737352
LeftShoulder 20.875822 7.676487 20.157385
LeftArm 16.648379 -23.811258 -80.648662
LeftForeArm -128.510776 23.280788 -17.458753
LeftHand -0.000092 41.308666 30.002160
LeftHandThumb1 30.357831 13.997178 22.438692
RightShoulder -5.547999 -26.331936 -19.382116
RightArm 7.949852 -20.786550 62.352484
RightForeArm 19.604138 -9.551718 24.980859
RightHand -0.000064 -9.829695 21.293241
RightHandThumb1 30.482666 -12.916435 -20.793814
LeftUpLeg -21.709658 8.699562 21.885058
LeftLeg 27.757900 0.000000 0.000000
LeftFoot -19.357208 12.831256 -7.923205
LeftToeBase 4.366000 0.000000 0.000000
RightUpLeg -68.971896 3.069841 -43.709337
RightLeg 114.050102 -0.000000 -0.000000
RightFoot 29.693878 -18.167123 -11.390639
RightToeBase 16.784000 -0.000000 -0.000000
1927
root -2.749895 33.682931 -4.487091 10.816194 -3.217937 -28.385554
Spine -11.456477 -8.226784 29.695493
Head 2.622695 -28.026013 8.881972
LeftShoulder 20.933808 7.628607 20.181612
LeftArm 17.092165 -23.981668 -80.660447
LeftForeArm -128.319029 23.239593 -17.319095
LeftHand -0.000045 41.219777 30.198153
LeftHandThumb1 30.357831 13.997178 22.438692
RightShoulder -5.357270 -26.468301 -19.365189
RightArm 7.847020 -21.145600 61.945813
RightForeArm 19.288909 -9.498223 25.244216
RightHand 0.000023 -10.040884 21.686330
RightHandThumb1 30.482666 -12.916435 -20.793814
LeftUpLeg -22.002822 8.341535 22.224444
LeftLeg 27.547501 -0.000000 0.000000
LeftFoot -19.060142 12.622146 -7.790784
LeftToeBase 4.148400 -0.000000 -0.000000
RightUpLeg -68.294345 3.976897 -45.037321
RightLeg 114.840302 -0.000000 -0.000000
RightFoot 29.372931 -18.178586 -11.915312
RightToeBase 17.228800 -0.000000 -0.000000
1928
root -2.785494 33.712033 -4.466291 10.836651 -2.523349 -28.636769
Spine -11.869071 -8.246985 30.072249
Head 2.519191 -28.557678 9.187158
LeftShoulder 20.942211 7.457697 20.234322
LeftArm 17.522441 -24.170291 -80.746045
LeftForeArm -128.164628 23.265986 -17.246424
LeftHand -0.000091 41.157080 30.502032
LeftHandThumb1 30.357831 13.997178 22.438692
RightShoulder -5.166838 -26.679765 -19.335294
RightArm 7.691552 -21.568274 61.602013
RightForeArm 18.967922 -9.378342 25.366194
RightHand 0.000055 -10.124319 22.065177
RightHandThumb1 30.482666 -12.916435 -20.793814
LeftUpLeg -22.189784 8.067930 22.602957
LeftLeg 27.341200 -0.000000 -0.000000
LeftFoot -18.895171 12.336683 -7.903627
LeftToeBase 4.096400 -0.000000 -0.000000
RightUpLeg -67.658578 4.795951 -46.137171
RightLeg 115.645302 -0.000000 -0.000000
RightFoot 29.131408 -18.118767 -12.559880
RightToeBase 17.336000 -0.000000 0.000000
1929
root -2.813394 33.737031 -4.455991 10.853765 -1.857314 -28.840206
Spine -12.223510 -8.268657 30.375048
Head 2.368590 -29.094774 9.498897
LeftShoulder 20.851548 7.297287 20.280907
LeftArm 17.813365 -24.296514 -80.766245
LeftForeArm -128.015293 23.282079 -17.170077
LeftHand -0.000090 41.137227 30.553969
LeftHandThumb1 30.357831 13.997178 22.438692
RightShoulder -5.038351 -26.834295 -19.317671
RightArm 7.444550 -22.035302 61.359444
RightForeArm 18.640349 -9.241277 25.458234
RightHand 0.000007 -10.272266 22.382749
RightHandThumb1 30.482666 -12.916435 -20.793814
LeftUpLeg -22.412009 7.766891 22.916712
LeftLeg 27.185101 -0.000000 0.000000
LeftFoot -18.699697 12.098826 -7.924766
LeftToeBase 4.002300 -0.000000 -0.000000
RightUpLeg -67.072065 5.490356 -47.115183
RightLeg 116.389397 -0.000000 -0.000000
RightFoot 29.026648 -17.941284 -13.359099
RightToeBase 17.570801 -0.000000 0.000000
1930
root -2.841194 33.758233 -4.447091 10.874259 -1.269128 -28.989149
Spine -12.519394 -8.259616 30.557273
Head 2.146077 -29.638645 9.864030
LeftShoulder 20.706646 7.172519 20.294542
LeftArm 18.037999 -24.381892 -80.783879
LeftForeArm -127.900790 23.237136 -17.074227
LeftHand -0.000052 41.169563 30.762613
LeftHandThumb1 30.357831 13.997178 22.438692
RightShoulder -4.968845 -26.986395 -19.300896
RightArm 7.157217 -22.524394 61.199281
RightForeArm 18.273172 -9.092776 25.575821
RightHand 0.000010 -10.330543 22.829929
RightHandThumb1 30.482666 -12.916435 -20.793814
LeftUpLeg -22.622865 7.575196 23.154391
LeftLeg 27.037701 -0.000000 -0.000000
LeftFoot -18.526433 11.832475 -7.938164
LeftToeBase 4.005900 -0.000000 -0.000000
RightUpLeg -66.549847 6.130119 -48.026241
RightLeg 117.126999 -0.000000 -0.000000
RightFoot 28.814752 -17.683440 -14.031732
RightToeBase 17.828800 0.000000 0.000000
1931
root -2.870894 33.776631 -4.440191 10.875764 -0.757348 -29.145652
Spine -12.724177 -8.212853 30.688692
Head 1.858540 -30.206622 10.291209
LeftShoulder 20.602912 7.055204 20.349039
LeftArm 18.236251 -24.465029 -80.762732
LeftForeArm -127.789182 23.184592 -16.975433
LeftHand -0.000044 40.974204 30.627835
LeftHandThumb1 30.357831 13.997178 22.438692
RightShoulder -4.949508 -27.071941 -19.264621
RightArm 6.920041 -23.097253 61.080450
RightForeArm 17.990155 -8.924663 25.535566
RightHand -0.000048 -10.466888 23.077201
RightHandThumb1 30.482666 -12.916435 -20.793814
LeftUpLeg -22.797141 7.410441 23.402329
LeftLeg 26.926300 -0.000000 0.000000
LeftFoot -18.393876 11.591225 -8.025107
LeftToeBase 3.976900 -0.000000 0.000000
RightUpLeg -66.101320 6.686582 -48.793184
RightLeg 117.812897 -0.000000 -0.000000
RightFoot 28.699273 -17.470302 -14.513534
RightToeBase 17.992001 -0.000000 0.000000
